# Blender 3.6.1
# www.blender.org
mtllib Cube.mtl
o Cube
v 1.482696 0.890265 0.095087
v 1.303240 -0.985911 -0.574061
v 0.298388 0.450549 1.645591
v 0.118931 -1.425627 0.976443
v -0.118931 1.425627 -0.976443
v -0.298388 -0.450549 -1.645591
v -1.303240 0.985911 0.574061
v -1.482696 -0.890265 -0.095087
vn 0.0897 0.9381 0.3346
vn -0.5922 -0.2199 0.7753
vn -0.8008 0.2677 -0.5358
vn -0.0897 -0.9381 -0.3346
vn 0.8008 -0.2677 0.5358
vn 0.5922 0.2199 -0.7753
vt 0.625000 0.500000
vt 0.875000 0.500000
vt 0.875000 0.750000
vt 0.625000 0.750000
vt 0.375000 0.750000
vt 0.625000 1.000000
vt 0.375000 1.000000
vt 0.375000 0.000000
vt 0.625000 0.000000
vt 0.625000 0.250000
vt 0.375000 0.250000
vt 0.125000 0.500000
vt 0.375000 0.500000
vt 0.125000 0.750000
s 0
usemtl Material
f 1/1/1 5/2/1 7/3/1 3/4/1
f 4/5/2 3/4/2 7/6/2 8/7/2
f 8/8/3 7/9/3 5/10/3 6/11/3
f 6/12/4 2/13/4 4/5/4 8/14/4
f 2/13/5 1/1/5 3/4/5 4/5/5
f 6/11/6 5/10/6 1/1/6 2/13/6
